<?xml version="1.0" standalone="no"?>
<!DOCTYPE svg PUBLIC "-//W3C//DTD SVG 20010904//EN"
 "http://www.w3.org/TR/2001/REC-SVG-20010904/DTD/svg10.dtd">
<svg version="1.0" xmlns="http://www.w3.org/2000/svg"
 width="500.000000pt" height="500.000000pt" viewBox="0 0 500.000000 500.000000"
 preserveAspectRatio="xMidYMid meet">
<metadata>
Created by potrace 1.14, written by Peter Selinger 2001-2017
</metadata>
<g transform="translate(0.000000,500.000000) scale(0.100000,-0.100000)"
fill="#000000" stroke="none">
<path d="M0 2500 l0 -2500 2500 0 2500 0 0 2500 0 2500 -2500 0 -2500 0 0
-2500z m2745 1095 c508 -73 822 -388 936 -936 24 -119 38 -395 38 -805 1 -287
-5 -325 -65 -387 -58 -59 -87 -67 -247 -67 -161 0 -204 13 -253 77 -50 66 -53
86 -54 402 0 323 3 348 57 410 57 68 99 81 252 81 l134 0 -7 83 c-38 447 -238
772 -560 906 -119 49 -231 71 -406 78 -497 19 -796 -134 -976 -501 -60 -123
-105 -279 -123 -431 -18 -149 -33 -133 133 -137 142 -3 145 -3 188 -33 49 -35
83 -82 98 -134 5 -20 10 -161 10 -322 0 -320 -5 -350 -66 -413 -56 -58 -88
-66 -247 -66 -122 0 -146 3 -184 21 -53 26 -98 85 -114 151 -18 76 -5 867 16
1005 48 309 182 589 360 751 162 148 370 241 607 270 115 15 363 13 473 -3z
m-1515 -1706 c0 -189 -3 -239 -12 -233 -7 4 -39 25 -71 46 l-58 39 3 156 3
156 60 38 c33 21 63 38 68 38 4 1 7 -107 7 -240z m2618 197 l62 -37 0 -153 0
-153 -70 -47 -70 -46 0 241 c0 132 3 238 8 236 4 -2 35 -21 70 -41z"/>
</g>
</svg>
